<?xml version="1.0" encoding="utf-8"?>
<!-- Generator: Adobe Illustrator 24.1.2, SVG Export Plug-In . SVG Version: 6.00 Build 0)  -->
<svg version="1.1" id="Layer_1" xmlns="http://www.w3.org/2000/svg" xmlns:xlink="http://www.w3.org/1999/xlink" x="0px" y="0px"
	 viewBox="0 0 283.5 283.5" style="enable-background:new 0 0 283.5 283.5;" xml:space="preserve">
<style type="text/css">
	.st0{fill:#58595B;}
	.st1{fill:#2FA200;}
	.st2{fill:#FFFFFF;}
	.st3{fill:#F47920;}
	.st4{fill:#D03700;}
	.st5{fill:#00A3FF;}
	.st6{fill:none;stroke:#F47920;stroke-width:16;stroke-miterlimit:10;}
</style>
<path class="st0" d="M7.1,141.9C7,67.3,66.9,7.3,141.6,7.1C216.1,7,276.4,67.2,276.4,141.7c0,74.5-60.3,134.7-134.8,134.6
	C67.2,276.2,7.2,216.3,7.1,141.9z M97,105.4c-0.6,0.7-2.9,2.1-3,3.6c-0.9,8.2-0.6,16.4,6,22.6c2.4,2.2,3.4,4.5,3.6,7.6
	c0.4,7.9,2,15.5,6.9,21.8c4.5,5.7,5.9,11.9,5.2,18.8c-0.1,1.1-0.1,2.3-0.1,3.4c0,7.1-3.2,12.3-9.6,15.1c-7.9,3.5-16,6.5-23.9,9.8
	c-10.5,4.3-20.7,9-29.1,17c-2.7,2.6-2.4,4.3,0.1,6.7c20.2,19.5,44.2,31.6,72,35c40.2,4.8,75.3-7,104.7-34.9c3.4-3.3,3.4-3.5,0-6.9
	c-8.3-8.1-18.6-12.7-29.1-17c-8.1-3.3-16.3-6.4-24.2-10c-5.9-2.7-9.1-7.5-9-14.2c0-3.9-0.2-7.9,0-11.8c0.1-2,0.7-4.4,1.9-6
	c6.2-8.6,10.1-17.8,10.2-28.6c0-1.4,0.6-3.3,1.6-4c7.5-5.8,8.3-13.9,8.1-22.3c0-1.7-1.7-3.4-2.5-5.1c-0.5-1.1-1.4-2.3-1.2-3.3
	c1.9-10.5,2.1-21-0.9-31.3c-3.3-11.2-10.2-16.8-21.8-18c-0.7-0.1-1.5-0.2-2.2-0.5c-9.7-3.9-19.9-4.3-30-3.4
	c-16.9,1.4-31.8,15.2-34,32C95.8,89.2,96.9,97.1,97,105.4z"/>
</svg>
