<svg xmlns="http://www.w3.org/2000/svg" xmlns:xlink="http://www.w3.org/1999/xlink" width="362" height="121" viewBox="0 0 362 121">
  <defs>
    <clipPath id="clip-logo">
      <rect width="362" height="121"/>
    </clipPath>
  </defs>
  <g id="logo" clip-path="url(#clip-logo)">
    <text id="coDrive" transform="translate(10.241 115.642)" fill="#f37920" font-size="97" font-family="SegoeUI-Bold, Segoe UI" font-weight="700"><tspan x="0" y="0">co</tspan><tspan y="0" fill="#1d3d70">Drive</tspan></text>
    <g id="Group_10" data-name="Group 10" transform="translate(1.27 2.05)">
      <path id="Path_354" data-name="Path 354" d="M379.3,163.349a38.269,38.269,0,0,1,5.365-8.9,33.38,33.38,0,0,1,7.766-6.989,28.493,28.493,0,0,1,9.742-3.883,43.963,43.963,0,0,1,5.224-.635c1.694-.141,3.459-.282,5.154-.353,6.919-.494,13.767-.847,20.685-1.2s13.767-.706,20.685-1.2c1.694-.141,3.459-.282,5.154-.424.847-.071,1.694-.141,2.471-.282a1.661,1.661,0,0,0,.565-.141h.071a.069.069,0,0,0,.071-.071,6.368,6.368,0,0,0,.847-.706c2.471-2.259,4.942-4.73,7.342-7.2,4.871-4.871,9.813-9.743,15.037-14.331l4.024-3.389a36.3,36.3,0,0,1,4.518-3.106c.424-.212.918-.424,1.412-.635l.847-.212c.282-.071.424-.071.706-.141.918-.141,1.765-.282,2.612-.353,1.694-.212,3.459-.424,5.154-.565,6.919-.777,13.767-1.341,20.685-1.836,13.766-1.059,27.6-1.836,41.441-2.189q10.378-.212,20.756-.212c6.919.071,13.837.282,20.826.777a173.487,173.487,0,0,1,20.756,2.542,53.878,53.878,0,0,1,10.237,2.824c.847.282,1.624.777,2.471,1.13a24.532,24.532,0,0,1,2.33,1.271l2.259,1.341c.777.494,1.483.988,2.189,1.412,5.86,3.883,11.3,8.119,16.732,12.5,5.365,4.377,10.66,8.9,15.814,13.484l-.494-.212c4.942.988,9.884,2.118,14.755,3.318,4.871,1.271,9.743,2.612,14.543,4.095a142.06,142.06,0,0,1,14.19,5.224,51.061,51.061,0,0,1,6.777,3.459,22.345,22.345,0,0,1,5.789,4.8,21.674,21.674,0,0,0-5.93-4.518c-2.188-1.2-4.518-2.189-6.848-3.177a146.618,146.618,0,0,0-14.261-4.73q-7.307-2.012-14.614-3.6c-4.871-1.059-9.813-2.118-14.755-2.965l-.282-.071-.212-.212c-5.224-4.448-10.59-8.825-16.026-13.061s-10.943-8.331-16.732-12a59.786,59.786,0,0,0-8.825-4.8,33.571,33.571,0,0,0-4.73-1.483l-2.471-.565-1.271-.282-1.271-.212a178.53,178.53,0,0,0-20.4-2.259c-13.7-.777-27.533-.777-41.3-.353s-27.533,1.059-41.3,2.047c-6.848.494-13.767,1.059-20.615,1.694-1.694.141-3.389.353-5.154.565-.847.071-1.694.212-2.541.282-.212,0-.424.071-.565.071a.768.768,0,0,1-.353.071,10.352,10.352,0,0,0-.988.424,27.731,27.731,0,0,0-4.095,2.753c-1.341,1.059-2.612,2.118-3.953,3.248-5.154,4.448-10.166,9.248-15.108,14.049-2.471,2.4-4.942,4.8-7.625,7.13a10.384,10.384,0,0,1-1.2.918,2.475,2.475,0,0,1-.988.424,2.508,2.508,0,0,1-.706.141c-.918.141-1.765.212-2.683.282-1.765.141-3.459.212-5.224.353-6.919.353-13.837.494-20.756.706l-20.685.635-5.154.212c-1.694.071-3.459.212-5.083.424a27.539,27.539,0,0,0-9.531,3.389,31.8,31.8,0,0,0-7.836,6.566A63.779,63.779,0,0,0,379.3,163.349Z" transform="translate(-379.3 -104.4)" fill="#f37920"/>
    </g>
  </g>
</svg>
